# xmcd
#
# Track frame offsets: 
#        150
#        14887
#        28625
#        44197
#        63472
#        82885
#        97310
#        114687
#        130937
#        146337
#        165230
#        183227
#
# Disc length: 2693 seconds
#
# Revision: 3
# Processed by: cddbd v1.5.2PL0 Copyright (c) Steve Scherf et al.
# Submitted via: ExactAudioCopy v0.99pb5
#
DISCID=a80a830c
DTITLE=Charlie Wilson - Uncle Charlie
DYEAR=2009
DGENRE=R&B
TTITLE0=Musta Heard
TTITLE1=Shawty Come Back
TTITLE2=There Goes My Baby
TTITLE3=Can't Live Without You
TTITLE4=Back To Love
TTITLE5=One Time
TTITLE6=Let It Out (featuring Snoop Dogg)
TTITLE7=Love, Love, Love
TTITLE8=What You Do To Me
TTITLE9=Homeless
TTITLE10=Thinkin' Of You
TTITLE11=Supa Sexxy (featuring T-Pain and Jamie Foxx)
EXTD=
EXTT0=
EXTT1=
EXTT2=
EXTT3=
EXTT4=
EXTT5=
EXTT6=
EXTT7=
EXTT8=
EXTT9=
EXTT10=
EXTT11=
PLAYORDER=
